<svg xmlns="http://www.w3.org/2000/svg" xmlns:xlink="http://www.w3.org/1999/xlink" viewBox="0 0 400 300" width="406" height="306" class="illustration styles_illustrationTablet__1DWOa"><defs><linearGradient id="linear-gradient" x1="135.98" y1="213.97" x2="117.53" y2="244.04" gradientUnits="userSpaceOnUse"><stop offset="0" stop-color="#00a99d"></stop><stop offset="1" stop-color="#fff"></stop></linearGradient><linearGradient id="linear-gradient-2" x1="207.21" y1="131.17" x2="181.23" y2="153.72" xlink:href="#linear-gradient"></linearGradient></defs><title>201-210</title><g style="isolation: isolate;"><g id="Layer_2" data-name="Layer 2"><path d="M385.54,165.49,196.42,57.28a5.28,5.28,0,0,0-5.28,0l-109.72,64,52.1,30.45c12.38-8.73,29.87-14.19,49.24-14.19,37.44,0,67.9,20.36,67.9,45.38,0,10.77-5.65,20.67-15.06,28.46l42,24.53,108-61.29A5.28,5.28,0,0,0,385.54,165.49Z" fill="#a7ebd2"></path><path d="M246.48,183c0-22.72-28.58-41.2-63.72-41.2-17.73,0-33.78,4.71-45.34,12.29l94.41,55.17C241,202.1,246.48,192.94,246.48,183Z" fill="#a7ebd2"></path><path d="M182.76,228.35c-37.44,0-67.9-20.36-67.9-45.38,0-10.77,5.65-20.67,15.06-28.46L77.28,123.75l-64.9,37.88a5.28,5.28,0,0,0,0,9.13l186,107.17a5.28,5.28,0,0,0,5.24,0l69.75-39.6L232,214.17C219.62,222.9,202.13,228.35,182.76,228.35Z" fill="#a7ebd2"></path><path d="M119,183c0,22.72,28.58,41.2,63.72,41.2,17.73,0,33.78-4.71,45.34-12.29l-94.41-55.17C124.55,163.85,119,173,119,183Z" fill="#a7ebd2"></path><path d="M182.76,224.18c-35.13,0-63.72-18.48-63.72-41.2,0-10,5.51-19.12,14.65-26.26l-3.77-2.2c-9.41,7.79-15.06,17.69-15.06,28.46,0,25,30.46,45.38,67.9,45.38,19.37,0,36.86-5.46,49.24-14.19l-3.9-2.28C216.54,219.47,200.49,224.18,182.76,224.18Z" fill="#a7ebd2"></path><path d="M182.76,141.77c35.13,0,63.72,18.48,63.72,41.2,0,10-5.51,19.12-14.65,26.26l3.77,2.2c9.41-7.79,15.06-17.69,15.06-28.46,0-25-30.46-45.38-67.9-45.38-19.37,0-36.86,5.46-49.24,14.19l3.9,2.28C149,146.48,165,141.77,182.76,141.77Z" fill="#00a99d"></path><path d="M232,214.17l41.36,24.17,4.2-2.38-42-24.53Q233.88,212.85,232,214.17Z" fill="#00a99d"></path><path d="M133.52,151.78l-52.1-30.45-4.14,2.42,52.65,30.77Q131.64,153.1,133.52,151.78Z" fill="#00a99d"></path><path d="M231.83,209.23l-94.41-55.17c-1.3.85-2.55,1.74-3.73,2.66l94.41,55.17C229.4,211,230.65,210.15,231.83,209.23Z" fill="#00a99d"></path><path d="M133.69,156.72c1.18-.92,2.43-1.81,3.73-2.66l-3.9-2.28q-1.88,1.32-3.59,2.74Z" fill="#00a99d"></path><path d="M228.1,211.89l3.9,2.28q1.87-1.32,3.59-2.74l-3.77-2.2C230.65,210.15,229.4,211,228.1,211.89Z" fill="#00a99d"></path><path d="M119.41,184.32,80.25,209.85l68.51,39.48,40-26.45S141.63,172.58,119.41,184.32Z" fill="url(#linear-gradient)" style="mix-blend-mode: multiply;"></path><path d="M194.8,145.54,137.24,167s-12.91,15.8,11.83,19.37L216.47,148S217,133.79,194.8,145.54Z" fill="url(#linear-gradient-2)" style="mix-blend-mode: multiply;"></path><path d="M198.28,133.82s3.15-5,5.91-6.8c0,0,.54-7.13,1.88-7.54s9.77,1.23,10,2.69-4.85,8.74-5.59,9.55-7.54,6.33-7.54,6.33l-4.63,1.11" fill="#fb9400"></path><path d="M207.08,103.18s-3.49,8.77-3.65,16c0,0,3.19,5.6,14.88,4.32l1-5.28,2,4.8s4,1.92,12.65-2.72c0,0-3.15-17.12-4.86-18.32S207.08,103.18,207.08,103.18Z" fill="#1d2b5a"></path><path d="M230.32,71.32a32.26,32.26,0,0,0-7.26-1.93s-11.18-9.26-18.68-9.91c0,0-3.56-1.15-5.16,1.43s-2.33,6.3-2.46,10.28c0,0,.86,2,4.55,1.15l1-4s4.79,5.81,9.22,8.51c0,0-5.41,18.68-5.53,21.26a11.6,11.6,0,0,0,1.11,5A25.69,25.69,0,0,0,229.15,102s2.81-7.5,3.58-8.72,6.43-4.18,9.13-12.41c0,0-.93-4.5-9.87-8" fill="#01295F"></path><path d="M241.39,79.71c.46,1.1,5,8,5.76,13.17S239,107,239,107l-4.76-4.37,3.59-6L234,90.17" fill="#01295F"></path><path d="M192.07,74l73,68.37,1,4.46L189.84,76A2.34,2.34,0,0,1,192.07,74Z" fill="#fb9400"></path><path d="M265.11,142.37s16.83,1,17.14,1.91,1.63,5,.51,5.6-16.65-3.05-16.65-3.05Z" fill="#494b4a"></path><path d="M205.27,154.17a3.17,3.17,0,0,1-3.69,1.7c-2.69-.61-11.27-8.5-11.27-8.5l.78-1.21s7.89,7.76,10.15,8a2.51,2.51,0,0,0,2.86-1.45" fill="#39393b"></path><path d="M205.76,153.2a3.17,3.17,0,0,1-3.69,1.7c-2.69-.61-11.27-8.5-11.27-8.5l.78-1.21s7.89,7.76,10.15,8a2.51,2.51,0,0,0,2.86-1.45" fill="#f8f5ff"></path><path d="M200.34,153.23l1.92-2.16-2.57-1.38-1.41,2.13s-3.48-2.61-3.48-2.77,1.33-2.89,1.33-2.89-1.12-.73-1.33-.62-1.76,2-1.76,2" fill="#f8f5ff"></path><path d="M202.2,140.2a6,6,0,0,1,1-.88c.51-.37,3.12-1.87,2.48-2.76s-3-2.22-3.64-1.66-1,2.41-1.82,2.51a1.34,1.34,0,0,1-1.35-1.08c0-.32.55-4.52,0-4.59s-1.9,5.47-2.69,6.26-4.36,3.49-3.88,6,11.77,9.74,13.45,9.19,1.68-3.49.65-4.44a61.46,61.46,0,0,1-5.46-6.29,7.21,7.21,0,0,1,.77-1.61A4.33,4.33,0,0,1,202.2,140.2Z" fill="#01295F"></path><path d="M220.7,136.13s12.21-4.41,13.3-6.84-1.87-9.87-1.87-9.87-11.88,1-11.65,1.52,3.65,4.44,3.65,4.44-6.32,3.31-8.69,6.34a9.54,9.54,0,0,0-2.27,5.7Z" fill="#fb9400"></path><path d="M214.31,149a2.78,2.78,0,0,1-3.57-.13c-1.87-1.54-5.47-11.15-5.47-11.15l1.1-.64s3.11,9.22,4.77,10.34a2.21,2.21,0,0,0,2.82,0" fill="#39393b"></path><path d="M215.08,148.38a2.78,2.78,0,0,1-3.57-.13c-1.87-1.54-5.47-11.15-5.47-11.15l1.1-.64s3.11,9.22,4.77,10.34a2.21,2.21,0,0,0,2.82,0" fill="#f8f5ff"></path><path d="M210.82,146.25l2.36-.93-1.47-2.1-2,1.11s-1.69-3.43-1.63-3.56,2.19-1.74,2.19-1.74-.59-1-.8-1-2.16.83-2.16.83" fill="#f8f5ff"></path><path d="M217.45,136.77a5.27,5.27,0,0,1,1.15-.29c.55-.09,3.2-.23,3-1.18s-1.48-2.94-2.2-2.75-1.76,1.48-2.43,1.25a1.18,1.18,0,0,1-.63-1.39c.13-.25,2.23-3.32,1.83-3.61s-3.66,3.53-4.6,3.84-4.8,1-5.44,3.18,5.37,12.33,6.91,12.56,2.7-2.07,2.27-3.22a54.07,54.07,0,0,1-1.79-7.11c0-.12,1.08-.85,1.24-1A3.81,3.81,0,0,1,217.45,136.77Z" fill="#01295F"></path><path d="M247.15,92.88c-.65-4.76-4.56-10.93-5.56-12.77-.65-1.4-2.81-4.62-9.61-7.26l-1.68-1.54a32.26,32.26,0,0,0-7.26-1.93s-11.18-9.26-18.68-9.91c0,0-3.56-1.15-5.16,1.43s-2.33,6.3-2.46,10.28c0,0,.86,2,4.55,1.15l1-4s4.79,5.81,9.22,8.51c0,0-5.41,18.68-5.53,21.26a11.6,11.6,0,0,0,1.11,5A25.69,25.69,0,0,0,229.15,102s2.81-7.5,3.58-8.72a14.69,14.69,0,0,1,2-1.84l3.1,5.27-3.59,6L239,107S247.86,98.08,247.15,92.88Z" fill="#494b4a" opacity="0.45"></path><path d="M196.76,71.19a2.36,2.36,0,0,0-1.92,0c-.73.5,0,1.8,0,1.8l.27,2.07s-3.37,1-3.46,3-.09,2.67.64,2.95,1,1.55,1.9,1.64-.44,1.18,1,1.36,3.17,1.08,4,.77-.86-2.3.69-2.58,1.49.59,1.49.59.05-3.42-1.13-4.24.55-4.51.55-4.51,1.82,1.08,1.73-.29-1.91-2.46-1.91-2.46" fill="#01295F"></path><path d="M234.24,102.68s-.87-2.28-1.51-1.06a2.66,2.66,0,0,0,0,2.38,18.05,18.05,0,0,1-1.74,2.6c-.06-.23-1.85.4-3,1a2.84,2.84,0,0,0-1.27,4c1.05,1.69,1.06.32,1.27.63s-.32.84.53,1.16a2.32,2.32,0,0,0,1.59,0s-.48.95.18,1.37a2.41,2.41,0,0,0,1.56.24,2.46,2.46,0,0,1,1.73-1,2.31,2.31,0,0,1,1.9,1v-3.76l2.22-3.13s2.13.8,2.22-.67S234.24,102.68,234.24,102.68Z" fill="#01295F"></path><path d="M230.47,69.39a8.5,8.5,0,0,0-1.32,3.6c-.22,2,.51,4.66,2.77,5s4.44-4.82,4.44-4.82" fill="#f4aa78"></path><path d="M230.32,71.32s2.47,6,5.35,6.21,6.15-3,6.81-8.38S228.76,62.62,230.32,71.32Z" fill="#f7b787"></path><path d="M244,69.92a35,35,0,0,1-1.51,3.42c-.53.88-5.91,1.43-8.49-2.09l1.28-2.87" fill="#d5dcf8"></path><path d="M235.29,69.06c1,.2,2.15,2.53,8.71.86,0,0,3.49-3.21-1.82-9.08s-13.69-.24-13,4.84a9.53,9.53,0,0,0,1.12,5.64s-.23-4.73,2.37-3.49-1.54,4.05-.7,5S235.29,69.06,235.29,69.06Z" fill="#01295F"></path><path d="M152.83,243.56l35.95-20.68v-60l-69.36-40.49S81.05,146,86.62,204.74Z" fill="#d0e2e0"></path><path d="M153.58,244.86l35.95-20.68a1.51,1.51,0,0,0,.74-1.3V196.34c0-10.63,1-21.86,0-32.45-.18-1.81-.59-2.14-2.09-3.09-3.25-2.06-6.66-3.89-10-5.83l-34.36-20.06-23.67-13.82a1.5,1.5,0,0,0-1.51,0c-18.34,11.36-29.39,34.46-32.72,55a106.91,106.91,0,0,0-1.34,14.46q-.1,3.86.07,7.71c.08,1.91-.42,5.6.65,7.26s4.61,2.92,6.26,3.89l33.34,19.55,27.14,15.92a1.5,1.5,0,0,0,1.51-2.59l-61-35.76a25.23,25.23,0,0,1-4.09-2.4c-.23-.21-.85-.32-1-.59-.41-.7,1.64,2.37.47-.44-.68-1.63-.31-4.66-.36-6.43a100.29,100.29,0,0,1,4.06-32.09,80.36,80.36,0,0,1,22.69-36.33c1.65-1.48,4.39-2.82,5.76-4.52-.92,1.15-2-.7-.13.76a43.08,43.08,0,0,0,5.22,3l36.22,21.14L179.2,159c2.63,1.53,5.75,4.19,8.69,5.08-1.27-.38-.3-1.87-.62.61a56,56,0,0,0,0,7v44.43c0,1.34-.69,5,0,6.23.57,1-1-.29.64-.71a9.23,9.23,0,0,0-1.88,1.08l-34,19.53A1.5,1.5,0,0,0,153.58,244.86Z" fill="#f2f2f2"></path><polyline points="119.42 122.39 119.42 184.32 86.62 204.74" fill="#d0e2e0"></polyline><path d="M117.91,122.38V177c0,1.45-.73,5.43,0,6.73.56,1,0-.33.56-.55a15.28,15.28,0,0,0-2.4,1.5l-10.44,6.5L85.87,203.44c-1.64,1-.13,3.61,1.51,2.59l17.24-10.73,11.63-7.24c1.24-.77,3.83-1.75,4.53-3.16.52-1,.13-3,.13-4.12v-58.4a1.5,1.5,0,0,0-3,0Z" fill="#f2f2f2"></path><path d="M188.77,162.88s-35.62,12.2-35.95,80.68" fill="#d0e2e0"></path><path d="M188.38,161.43c-7.48,2.61-13.93,9.11-18.63,15.2-14.49,18.8-18.21,43.85-18.42,66.93a1.5,1.5,0,0,0,3,0c.21-22.39,3.71-46.84,17.78-65.1,4.27-5.54,10.6-11.88,17.07-14.13,1.81-.63,1-3.53-.8-2.89Z" fill="#f2f2f2"></path></g></g></svg>