<svg id="_547_volleyball_flatline" data-name="#547_volleyball_flatline" xmlns="http://www.w3.org/2000/svg" viewBox="0 0 400 300" width="406" height="306" class="illustration styles_illustrationTablet__1DWOa"><path d="M257.17,235.48l70.21,35.32a1.08,1.08,0,0,1-.4,2l-1.11.09a19.75,19.75,0,0,1-10.6-2.11l-64.22-32.59a.94.94,0,0,1,.27-1.77Z" fill="#e6e7e8"></path><line x1="254.64" y1="92.62" x2="323.34" y2="72.07" fill="#fff"></line><path d="M254.64,94.12a1.5,1.5,0,0,1-.43-2.94l68.7-20.55a1.5,1.5,0,0,1,.86,2.87l-68.7,20.56A1.65,1.65,0,0,1,254.64,94.12Z" fill="#231f20"></path><line x1="255.76" y1="159.54" x2="322.4" y2="167.23" fill="#fff"></line><path d="M322.4,168.73h-.17L255.59,161a1.5,1.5,0,1,1,.34-3l66.64,7.69a1.5,1.5,0,0,1-.17,3Z" fill="#231f20"></path><line x1="254.64" y1="142.27" x2="322.4" y2="147.9" fill="#fff"></line><path d="M322.4,148.4h0l-67.77-5.63a.5.5,0,0,1-.45-.54.49.49,0,0,1,.54-.46l67.76,5.63a.5.5,0,0,1,0,1Z" fill="#231f20"></path><path d="M322.4,128.88H255.76a.51.51,0,0,1-.5-.5.5.5,0,0,1,.5-.5H322.4a.5.5,0,0,1,.5.5A.51.51,0,0,1,322.4,128.88Z" fill="#231f20"></path><line x1="255.76" y1="115.61" x2="323.34" y2="107.92" fill="#fff"></line><path d="M255.76,116.11a.5.5,0,0,1,0-1l67.57-7.7a.5.5,0,0,1,.11,1l-67.57,7.69Z" fill="#231f20"></path><path d="M254.64,103.79c.56.19,68.7-14.46,68.7-14.46" fill="#fff"></path><path d="M254.54,104.27h-.06a.5.5,0,0,1-.32-.63.49.49,0,0,1,.5-.34c1.78-.15,45.57-9.5,68.57-14.44a.5.5,0,1,1,.21,1C260,103.46,255.05,104.27,254.54,104.27Z" fill="#231f20"></path><path d="M265.62,161.17a.5.5,0,0,1-.5-.5V89.33a.5.5,0,0,1,.5-.5.51.51,0,0,1,.5.5v71.34A.5.5,0,0,1,265.62,161.17Z" fill="#231f20"></path><path d="M276.38,162.42a.51.51,0,0,1-.5-.5V86.11a.51.51,0,0,1,.5-.5.5.5,0,0,1,.5.5v75.81A.5.5,0,0,1,276.38,162.42Z" fill="#231f20"></path><path d="M287.27,163.68a.5.5,0,0,1-.5-.5V82.86a.5.5,0,0,1,.5-.5.5.5,0,0,1,.5.5v80.32A.51.51,0,0,1,287.27,163.68Z" fill="#231f20"></path><path d="M297.9,163.88a.5.5,0,0,1-.5-.5V79.68a.5.5,0,0,1,.5-.5.5.5,0,0,1,.5.5v83.7A.5.5,0,0,1,297.9,163.88Z" fill="#231f20"></path><path d="M309.73,165.67a.5.5,0,0,1-.5-.5v-89a.5.5,0,0,1,.5-.5.5.5,0,0,1,.5.5v89A.51.51,0,0,1,309.73,165.67Z" fill="#231f20"></path><path d="M254.64,81.45h0A3.38,3.38,0,0,1,258,84.83V235.48a2.4,2.4,0,0,1-2.4,2.4h-2a2.4,2.4,0,0,1-2.4-2.4V84.83A3.38,3.38,0,0,1,254.64,81.45Z" fill="#231f20"></path><path d="M255.61,238.39h-2a2.91,2.91,0,0,1-2.9-2.91V84.83a3.88,3.88,0,1,1,7.75,0V235.48A2.91,2.91,0,0,1,255.61,238.39ZM254.64,82a2.88,2.88,0,0,0-2.88,2.88V235.48a1.91,1.91,0,0,0,1.9,1.91h2a1.91,1.91,0,0,0,1.9-1.91V84.83A2.88,2.88,0,0,0,254.64,82Z" fill="#231f20"></path><path d="M323.34,55.74h0a3.38,3.38,0,0,1,3.38,3.38V269.27a2.4,2.4,0,0,1-2.4,2.4h-2a2.4,2.4,0,0,1-2.4-2.4V59.11a3.38,3.38,0,0,1,3.38-3.38Z" fill="#231f20"></path><path d="M324.31,272.17h-1.95a2.9,2.9,0,0,1-2.9-2.9V59.11a3.88,3.88,0,0,1,7.76,0V269.27A2.91,2.91,0,0,1,324.31,272.17Zm-1-215.93a2.88,2.88,0,0,0-2.88,2.87V269.27a1.9,1.9,0,0,0,1.9,1.9h1.95a1.91,1.91,0,0,0,1.91-1.9V59.11A2.89,2.89,0,0,0,323.34,56.24Z" fill="#231f20"></path><ellipse cx="141.59" cy="258.42" rx="34.78" ry="8.23" fill="#e6e7e8"></ellipse><path d="M146.34,82.55s21.72.38,24.12-.47S194.25,69.59,195.94,68s5.07-6.15,7.32-7,8-1.89,7.88-.66-4.64,3.09-5.49,3.92S203,67.34,203,67.34s5.21-2,5.07-.61-3.81,4-5.21,4.16a47.37,47.37,0,0,0-5.92,2s-17.17,18-21.25,18.45-19.43,1.82-19.43,1.82Z" fill="#fff"></path><path d="M156.24,93.69a.52.52,0,0,1-.37-.16L146,82.89a.5.5,0,0,1-.09-.55.47.47,0,0,1,.46-.29c6,.1,22.05.23,23.94-.45,2.38-.84,23.71-12.46,25.3-14,.47-.46,1.07-1.14,1.76-1.92,1.79-2,4-4.54,5.73-5.18s7-1.88,8.23-.91a.85.85,0,0,1,.33.76c-.11,1-1.57,1.86-3.79,3.09A12.34,12.34,0,0,0,206,64.56c-.38.38-1,1.08-1.52,1.72,1.42-.44,3.08-.79,3.73-.31a.85.85,0,0,1,.33.81c-.17,1.76-4.15,4.4-5.63,4.61a42.41,42.41,0,0,0-5.7,2c-2.09,2.2-17.4,18.12-21.49,18.53s-19.28,1.81-19.44,1.82Zm-8.73-10.62,8.93,9.6c2-.18,15.42-1.42,19.18-1.79,3.19-.33,16.2-13.32,20.94-18.3a.36.36,0,0,1,.18-.12,44.16,44.16,0,0,1,6-2.06c1.27-.18,4.53-2.56,4.77-3.66a12.52,12.52,0,0,0-4.38,1.06.49.49,0,0,1-.59-.17.5.5,0,0,1,0-.6c.07-.1,1.86-2.34,2.71-3.18a11.49,11.49,0,0,1,2.06-1.29c1-.55,3-1.67,3.26-2.24-.8-.35-5,.27-7.18,1.1-1.5.56-3.72,3.07-5.34,4.91-.71.8-1.32,1.49-1.81,2-1.72,1.67-23.13,13.35-25.67,14.25C168.46,83.32,152.36,83.14,147.51,83.07Z" fill="#231f20"></path><path d="M157.16,139.78v29.14s-4.65.57-10.84,9.15-11.26,17.6-13.37,20-4.51,5.35-5.92,6.2-3.66,2.39-3.94,3.38,2.68,3.52,2.68,5.21-1,7.74-.29,10.41,3.24,5.92,4.23,5.07,4.26-20,6.71-23.09,19.05-20.83,22.85-23.65,6.76-5.35,8.17-7.32,11.12-35.33,11.12-35.33Z" fill="#fff"></path><path d="M129.33,229a1.18,1.18,0,0,1-.41-.07c-1.36-.42-3.3-3.15-3.92-5.51-.52-2-.17-5.57.08-8.19.1-1,.19-1.88.19-2.35a6.44,6.44,0,0,0-1.46-2.73c-.78-1.07-1.4-1.92-1.2-2.62.36-1.28,3-3,4.16-3.67s2.83-2.67,4.53-4.64l1.27-1.46a78.07,78.07,0,0,0,4.74-7c2.37-3.74,5.33-8.39,8.6-12.93,5.24-7.26,9.42-8.9,10.75-9.26V139.78a.5.5,0,0,1,.48-.5l21.4-.84a.48.48,0,0,1,.41.19.52.52,0,0,1,.09.45c-1,3.42-9.78,33.5-11.2,35.48s-4,4.3-8.27,7.44c-3.86,2.85-20.5,20.68-22.76,23.55-1.39,1.76-3.19,9.52-4.51,15.18s-1.79,7.57-2.27,8A1.06,1.06,0,0,1,129.33,229Zm28.33-88.71v28.66a.5.5,0,0,1-.44.5s-4.54.69-10.49,9c-3.26,4.51-6.21,9.15-8.58,12.88a79,79,0,0,1-4.83,7.15c-.41.46-.84.95-1.26,1.44-1.84,2.12-3.57,4.13-4.77,4.85-2,1.21-3.54,2.48-3.72,3.09,0,.26.64,1.19,1.05,1.75.77,1.06,1.65,2.26,1.65,3.32,0,.51-.09,1.37-.19,2.45-.24,2.4-.59,6-.11,7.84.56,2.13,2.3,4.51,3.24,4.81.09,0,.14,0,.17,0a60.18,60.18,0,0,0,2-7.44c1.41-6.08,3.17-13.64,4.69-15.57,2.28-2.9,19-20.86,22.95-23.75,4.16-3.07,6.79-5.43,8.06-7.21,1-1.37,6.95-21.14,10.85-34.52Zm-.5,28.66h0Z" fill="#231f20"></path><path d="M140.17,134.84c0,.75-13.9,24.78-13.9,24.78s-1.87-6.57-10.13-6.57-19.52-4.22-20-5.82a16,16,0,0,0-2-4.5c-.66-.75-5,1.5-7,1.22s-7-3.48-9.86-3-5.25,5-5.25,5,18.3,5.44,20.46,6.66,28.81,21.12,35.76,21.31,29.28-33,29.28-33" fill="#fff"></path><path d="M128.3,174.39h-.07c-5.7-.16-23.55-12.69-32.12-18.71-2-1.41-3.46-2.43-3.87-2.66-1.67-1-14-4.75-20.35-6.62a.51.51,0,0,1-.31-.71c.11-.2,2.5-4.74,5.62-5.24,2-.32,4.58.83,6.89,1.84a14.71,14.71,0,0,0,3.12,1.16A11.41,11.41,0,0,0,91,142.7c1.81-.56,3-.92,3.55-.3a16.38,16.38,0,0,1,2.08,4.69c.43,1.15,10.93,5.46,19.51,5.46,6.54,0,9.28,4,10.21,5.94,5.39-9.33,13.05-22.77,13.32-23.73a.46.46,0,0,1,.5-.46.54.54,0,0,1,.5.54c0,.74-7.59,14-14,25a.54.54,0,0,1-.5.25.53.53,0,0,1-.42-.36c-.07-.25-1.89-6.21-9.65-6.21-8.2,0-19.89-4.19-20.47-6.18a15.8,15.8,0,0,0-1.87-4.31,10.55,10.55,0,0,0-2.51.59,11.4,11.4,0,0,1-4.22.79,15.25,15.25,0,0,1-3.39-1.23c-2.07-.91-4.64-2-6.32-1.77-2.06.33-3.88,3-4.59,4.18,3.25,1,18,5.41,20,6.53.46.25,1.85,1.23,4,2.71,7.84,5.5,26.18,18.38,31.58,18.53h.05c5.53,0,22.65-23.67,28.8-32.82a.5.5,0,0,1,.7-.13.49.49,0,0,1,.13.69c-.05.08-5.67,8.41-12.05,16.62C137.28,168.79,131.37,174.39,128.3,174.39Z" fill="#231f20"></path><path d="M143.24,80.66a18.93,18.93,0,0,1-2.55,2.63A44.48,44.48,0,0,1,133.6,89a16.32,16.32,0,0,1-12.48,1.75,4.9,4.9,0,0,1-2.12-.9c-1.34-1.11-1.39-3.13-1.32-4.87l-1.6,1.75a1.11,1.11,0,0,1-.4.32,1.05,1.05,0,0,1-.71-.09c-2.74-1.07-4.75-3.42-6.63-5.68a6,6,0,0,0,2.53-3.39,37.42,37.42,0,0,0,2.63-12.18c.08-1.69-.5-4,.41-5.41a5.18,5.18,0,0,1,4.56-2.16,7.54,7.54,0,0,1,3.44-3.93c3.61-2.1,7.69-2.91,11.7-1.42a21.17,21.17,0,0,1,8,5.9,16.15,16.15,0,0,1,2.93,4.27,2,2,0,0,1,.14,1.77c-.3.53-1.29.59-1.42,0a24.07,24.07,0,0,1,1.84,9.15A15,15,0,0,1,144,79.24,7.8,7.8,0,0,1,143.24,80.66Z" fill="#fff"></path><path d="M125.41,91.71a19.36,19.36,0,0,1-4.41-.52,5.46,5.46,0,0,1-2.32-1,5.09,5.09,0,0,1-1.51-4l-.72.79a1.27,1.27,0,0,1-1.66.36c-2.93-1.14-5.1-3.74-6.84-5.83a.54.54,0,0,1-.1-.43.51.51,0,0,1,.27-.34,5.6,5.6,0,0,0,2.28-3.12,36.86,36.86,0,0,0,2.6-12,14.93,14.93,0,0,0,0-1.6c-.09-1.38-.19-2.94.54-4.06a5.71,5.71,0,0,1,4.57-2.41h.07a8.15,8.15,0,0,1,3.52-3.84c4.1-2.38,8.29-2.89,12.13-1.46a21.27,21.27,0,0,1,8.24,6,16.48,16.48,0,0,1,3,4.4,2.59,2.59,0,0,1,.12,2.21,1.36,1.36,0,0,1-1,.66,23.39,23.39,0,0,1,1.47,8.25,15.42,15.42,0,0,1-1.16,5.6,8.06,8.06,0,0,1-.83,1.51h0a12,12,0,0,1-1.88,2l-.74.69a44.05,44.05,0,0,1-7.16,5.72A15.71,15.71,0,0,1,125.41,91.71Zm-7.73-7.28a.63.63,0,0,1,.19,0,.5.5,0,0,1,.31.48c-.06,1.66,0,3.5,1.14,4.48a4.71,4.71,0,0,0,1.91.8,15.84,15.84,0,0,0,12.11-1.7,43,43,0,0,0,7-5.59l.76-.71a11.12,11.12,0,0,0,1.73-1.85,7,7,0,0,0,.73-1.33,14.48,14.48,0,0,0,1.08-5.23A23.22,23.22,0,0,0,142.9,65a.85.85,0,0,1-.09-.24.5.5,0,0,1,.95-.29l0,.08a.29.29,0,0,0,.19,0,.4.4,0,0,0,.3-.16,1.58,1.58,0,0,0-.15-1.33A16,16,0,0,0,141.28,59a20.23,20.23,0,0,0-7.85-5.77c-4.48-1.68-8.6-.17-11.27,1.39a7,7,0,0,0-3.22,3.65.51.51,0,0,1-.53.33,4.68,4.68,0,0,0-4.08,1.94c-.55.85-.46,2.17-.38,3.45a14.53,14.53,0,0,1,0,1.72A38,38,0,0,1,111.33,78a7.15,7.15,0,0,1-2.24,3.32c1.67,2,3.56,4.12,6.06,5.1a.72.72,0,0,0,.36.08,1,1,0,0,0,.2-.18l1.6-1.76A.49.49,0,0,1,117.68,84.43Zm25.56-3.77h0Z" fill="#231f20"></path><path d="M133.32,85.17s-21,5-30.18,9.82c0,0-3.57-17.38-3.43-21.4s2.17-6,2.78-9.1c.65-3.38-2.24-7-2.8-6.26s.82,2.61.4,3.84a9.82,9.82,0,0,1-1.26,2.35s.2-7.12-1.77-8.58-5.29-.47-5.71.93-1.24,7.77,0,11.52c.47,1.5.64,41,3.32,42.28s31.43-10.17,33.4-9.88,13,7.42,15.69,14.6a17.13,17.13,0,0,1,0,12.67l17.2,4.71,11.4-10.42s-6.08-22.72-7.2-25-1.1-6-1.18-7.32-8.11-2-8.11-2a12.79,12.79,0,0,0-7.52-4.75C144,82.22,137,83.31,133.32,85.17Z" fill="#fff"></path><path d="M160.91,133.17l-.13,0-17.2-4.7a.51.51,0,0,1-.33-.28.48.48,0,0,1,0-.42,16.79,16.79,0,0,0,0-12.28c-2.67-7.17-13.66-14-15.29-14.29-.71,0-6.23,1.84-11.55,3.68-11.83,4.1-20.34,7-22,6.16-1.83-.87-2.54-12.57-3.2-33.85-.14-4.45-.26-8.29-.38-8.73-1.23-3.9-.38-10.38.05-11.81a3,3,0,0,1,2.06-1.73,5,5,0,0,1,4.42.54c1.53,1.12,1.89,4.88,2,7.19.11-.23.21-.48.3-.72a3.48,3.48,0,0,0-.27-1.83c-.25-.83-.5-1.61,0-2.16a.79.79,0,0,1,1-.18c1.26.58,3.24,3.87,2.67,6.84a16.33,16.33,0,0,1-1.26,3.55,13.73,13.73,0,0,0-1.51,5.48c-.12,3.48,2.65,17.45,3.29,20.63,9.18-4.62,28.44-9.26,29.65-9.54,3.62-1.82,10.59-3,15.26-2a13.38,13.38,0,0,1,7.68,4.76c5.46.49,8.26,1.3,8.33,2.41,0,.19,0,.45,0,.74.06,1.6.19,4.57,1.1,6.39,1.13,2.27,7,24.14,7.24,25.07a.51.51,0,0,1-.15.5L161.25,133A.55.55,0,0,1,160.91,133.17Zm-16.52-5.54,16.39,4.49,11-10c-2.12-7.93-6.23-22.87-7.09-24.59-1-2-1.13-5.12-1.2-6.8,0-.28,0-.53,0-.71-.36-.51-4.25-1.21-7.66-1.51a.47.47,0,0,1-.37-.22,12.35,12.35,0,0,0-7.21-4.54c-4.42-1-11.26.18-14.65,1.89a.21.21,0,0,1-.11,0c-.21,0-21,5-30.05,9.78a.51.51,0,0,1-.45,0,.52.52,0,0,1-.28-.35c-.14-.71-3.58-17.48-3.44-21.52a14.45,14.45,0,0,1,1.6-5.85A15.35,15.35,0,0,0,102,64.39a6.66,6.66,0,0,0-2-5.66,6.29,6.29,0,0,0,.26,1.06,4.05,4.05,0,0,1,.25,2.44,10.2,10.2,0,0,1-1.33,2.49.5.5,0,0,1-.9-.31c.07-2.66-.29-7.22-1.57-8.17a4,4,0,0,0-3.51-.39,2.17,2.17,0,0,0-1.42,1.07c-.45,1.5-1.17,7.69,0,11.22.14.46.22,2.7.42,9,.29,9.51,1,31.78,2.64,33,1.42.67,13.34-3.47,21.23-6.2s11.19-3.85,12-3.73c2.18.31,13.35,7.58,16.09,14.93A17.9,17.9,0,0,1,144.39,127.63ZM133.32,85.17h0Z" fill="#231f20"></path><path d="M133.6,89l-9.06-13s3.34-8-.11-13c0,0,8,1.49,11.15-3.07,0,0,5.46,4.75,6.95,9.85a7.59,7.59,0,0,1-2.2,8l4.48,8" fill="#fff"></path><path d="M133.61,89.45a.49.49,0,0,1-.41-.22l-9.07-13a.49.49,0,0,1,0-.48c0-.08,3.19-7.82-.06-12.54a.5.5,0,0,1,.5-.78c.08,0,7.73,1.38,10.65-2.86a.53.53,0,0,1,.35-.21.51.51,0,0,1,.39.12c.23.2,5.59,4.91,7.1,10.09a8.16,8.16,0,0,1-2,8.26l4.28,7.66a.5.5,0,1,1-.87.48l-4.48-8a.5.5,0,0,1,.13-.63,7,7,0,0,0,2-7.49c-1.2-4.11-5.13-8.06-6.4-9.25-2.74,3.33-8,3.2-10.26,3,2.4,4.67.24,11-.29,12.32L134,88.66a.49.49,0,0,1-.12.69A.46.46,0,0,1,133.61,89.45Z" fill="#231f20"></path><path d="M126.76,72s-5.59-4.17-6.41.89,5.39,6.63,7.67,4.92" fill="#fff"></path><path d="M125.65,79a6.84,6.84,0,0,1-3.43-.94,4.91,4.91,0,0,1-2.36-5.22,3.2,3.2,0,0,1,1.8-2.73c2.16-.87,5.27,1.42,5.4,1.52a.5.5,0,0,1-.6.8c-.77-.57-3.07-1.94-4.43-1.39a2.34,2.34,0,0,0-1.19,2,3.91,3.91,0,0,0,1.9,4.2c1.58,1,3.87,1.07,5,.23a.52.52,0,0,1,.7.1.51.51,0,0,1-.1.71A4.52,4.52,0,0,1,125.65,79Z" fill="#231f20"></path><path d="M137,70a.48.48,0,0,1-.44-.27.5.5,0,0,1,.21-.67,4.9,4.9,0,0,0,1.89-1.63c-.38-.42-2.61-1.14-4.94-1.58a.5.5,0,0,1-.4-.59.5.5,0,0,1,.59-.39c1.17.22,5,1,5.65,2.12a.85.85,0,0,1,.07.71,5.46,5.46,0,0,1-2.4,2.25A.46.46,0,0,1,137,70Zm1.69-2.52h0Z" fill="#231f20"></path><path d="M140.33,77.78a28.84,28.84,0,0,1-7.2,3.4s4.55,4.33,10,1.65Z" fill="#231f20"></path><path d="M139.52,84.2a10.81,10.81,0,0,1-6.74-2.66.51.51,0,0,1-.14-.47.49.49,0,0,1,.34-.37A28.46,28.46,0,0,0,140,77.37a.52.52,0,0,1,.4-.08.51.51,0,0,1,.33.24l2.84,5.06a.5.5,0,0,1-.22.69A8.8,8.8,0,0,1,139.52,84.2Zm-5.37-2.83a8.53,8.53,0,0,0,8.32,1.23l-2.31-4.11A31,31,0,0,1,134.15,81.37Z" fill="#231f20"></path><ellipse cx="131.14" cy="66.53" rx="0.72" ry="1.26" transform="translate(-15.25 80.48) rotate(-32.34)" fill="#231f20"></ellipse><ellipse cx="136.43" cy="63.18" rx="0.72" ry="1.26" transform="translate(-12.63 82.79) rotate(-32.34)" fill="#231f20"></ellipse><path d="M136.56,76.49h-.28c-2.51-.27-5.26-4.16-5.37-4.33a.5.5,0,1,1,.82-.57c.71,1,3,3.72,4.66,3.9a1.3,1.3,0,0,0,1.11-.38A5.2,5.2,0,0,0,139,70.23a.5.5,0,0,1,.36-.61A.52.52,0,0,1,140,70a6.26,6.26,0,0,1-1.77,5.85A2.32,2.32,0,0,1,136.56,76.49Z" fill="#231f20"></path><path d="M123.45,88.18s11,4.87,12.75,10.78-1.58,7.55-1.58,7.55,8.27,5.91,9.09,8.78c0,0,5.49-11.4,11.68-13.58a24.33,24.33,0,0,1,11-1.39A17.75,17.75,0,0,0,165,88.12c-1.25-2.26-3.9-1.67-6.36-2.24S151,82,148,81.57l-2.33.61s8.41,3,8.28,5-6.82,8.85-11.54,8.35-15.46-9.16-15.46-9.16Z" fill="#01295F"></path><path d="M143.71,115.79h0a.49.49,0,0,1-.44-.36c-.64-2.22-6.64-6.9-8.9-8.52a.49.49,0,0,1,.07-.85c.11-.06,2.91-1.56,1.32-7-1.64-5.62-12.36-10.41-12.47-10.46a.5.5,0,0,1-.3-.44.5.5,0,0,1,.27-.46l3.45-1.83a.52.52,0,0,1,.55,0c.11.09,10.69,8.59,15.2,9.06,1.94.2,4.56-1,7.22-3.21,2.19-1.85,3.72-3.91,3.77-4.68.06-1-4.06-3.11-7.95-4.47a.51.51,0,0,1-.33-.5.5.5,0,0,1,.37-.46l2.33-.62a.67.67,0,0,1,.2,0,25.54,25.54,0,0,1,6.38,2.5,26.07,26.07,0,0,0,4.31,1.83,17.38,17.38,0,0,0,2,.28c1.78.17,3.63.34,4.66,2.2a18.1,18.1,0,0,1,1.45,12.57.51.51,0,0,1-.57.36,24,24,0,0,0-10.73,1.37c-5.93,2.09-11.35,13.22-11.4,13.33A.48.48,0,0,1,143.71,115.79Zm-8.24-9.28c1.76,1.29,6.62,5,8.25,7.65,1.47-2.8,6.17-11,11.51-12.92A25.51,25.51,0,0,1,166,99.76a17.19,17.19,0,0,0-1.46-11.39c-.77-1.4-2.14-1.53-3.88-1.7a14.81,14.81,0,0,1-2.15-.3,26.2,26.2,0,0,1-4.52-1.9,27,27,0,0,0-6-2.39l-.7.18c2.75,1.07,7.25,3.1,7.13,4.93-.09,1.33-2.14,3.72-4.13,5.39-1.35,1.14-4.85,3.77-8,3.43-4.45-.46-13.76-7.71-15.47-9.06l-2.28,1.21c2.73,1.33,10.62,5.56,12.11,10.66C138.05,103.47,136.45,105.66,135.47,106.51Z" fill="#231f20"></path><path d="M143.71,128s-7,7-14.55,10.52c0,0-.19,4.5,3.57,5.44a11.85,11.85,0,0,0,7.28,6.19s5.62,6,10.8,3c0,0,9.21,5,13.12.84,0,0,3.43-1.1,9-2.33,1.69-.38,6,.93,7.88-2.82l-8.47-26.55S150.75,129.28,143.71,128Z" fill="#01295F"></path><path d="M159.46,156.13c-3.65,0-7.61-1.92-8.64-2.45-5.08,2.67-10.28-2.31-11.08-3.12a12.31,12.31,0,0,1-7.37-6.22c-3.86-1.15-3.71-5.84-3.71-5.88A.49.49,0,0,1,129,138c7.34-3.49,14.34-10.35,14.41-10.42a.49.49,0,0,1,.44-.14c6.84,1.28,28.14-5.62,28.36-5.69a.5.5,0,0,1,.38,0,.48.48,0,0,1,.25.29l8.47,26.55a.48.48,0,0,1,0,.37c-1.56,3.11-4.65,3.06-6.69,3a7.66,7.66,0,0,0-1.53.06c-4.89,1.09-8.16,2.08-8.81,2.29A6.41,6.41,0,0,1,159.46,156.13Zm-8.65-3.52a.54.54,0,0,1,.25.06c.08.05,8.9,4.81,12.5.94a.49.49,0,0,1,.21-.14s3.52-1.12,9-2.34a7.91,7.91,0,0,1,1.77-.09c2,0,4.38.08,5.68-2.29L172,122.88c-3.26,1-21.32,6.66-28.11,5.62-1.16,1.1-7.5,7-14.22,10.29,0,1,.37,3.94,3.19,4.64a.52.52,0,0,1,.34.29,11.42,11.42,0,0,0,7,5.91.79.79,0,0,1,.23.14c.05.06,5.41,5.66,10.18,2.91A.47.47,0,0,1,150.81,152.61Z" fill="#231f20"></path><path d="M96.08,67.57H96a.5.5,0,0,1-.4-.58,4.08,4.08,0,0,1,3.14-3.05.5.5,0,1,1,.2,1,3.07,3.07,0,0,0-2.36,2.24A.49.49,0,0,1,96.08,67.57Z" fill="#231f20"></path><circle cx="171.49" cy="38.49" r="11.48" fill="#01295F"></circle><path d="M171.49,50.47a12,12,0,1,1,12-12A12,12,0,0,1,171.49,50.47Zm0-23a11,11,0,1,0,11,11A11,11,0,0,0,171.49,27.5Z" fill="#231f20"></path><path d="M168.45,50.06a.5.5,0,0,1-.5-.48c-.26-6.83,3.33-9.69,4.38-10.39-.4-6.1-7.3-8.78-8.25-8.95a.59.59,0,0,1-.41-.18.5.5,0,0,1,.06-.7c.16-.14.36-.31,2.09.45,2.2,1,7.35,3.88,7.52,9.64a.51.51,0,0,1-.26.46c-.18.09-4.41,2.47-4.13,9.63a.5.5,0,0,1-.48.52Z" fill="#231f20"></path><path d="M175.42,40.19a14.83,14.83,0,0,1-2.68-.23.51.51,0,0,1-.39-.59.49.49,0,0,1,.59-.39c.06,0,6.13,1.21,9.56-2.38a.5.5,0,1,1,.73.69A10.67,10.67,0,0,1,175.42,40.19Z" fill="#231f20"></path><path d="M175.71,46.38a12.26,12.26,0,0,1-6.68-2.1.5.5,0,0,1,.59-.8c.24.18,5.88,4.25,11.71,0a.51.51,0,0,1,.7.11.49.49,0,0,1-.11.7A10.34,10.34,0,0,1,175.71,46.38Z" fill="#231f20"></path><path d="M164.15,47.54a.5.5,0,0,1-.5-.44,14,14,0,0,1,6.23-13.43.5.5,0,0,1,.5.86A12.77,12.77,0,0,0,164.65,47a.5.5,0,0,1-.45.55Z" fill="#231f20"></path><path d="M160.16,40.86h-.07a.5.5,0,0,1-.43-.57c1.13-7.81,7-9.67,7.29-9.74a.5.5,0,1,1,.29.95c-.23.07-5.56,1.77-6.59,8.94A.5.5,0,0,1,160.16,40.86Z" fill="#231f20"></path><path d="M176.84,40.11a.5.5,0,0,1-.5-.46.71.71,0,0,1,0-.15c.09-1.21-.73-9.64-6.37-11.5a.5.5,0,1,1,.31-.95c6.48,2.14,7.18,11.59,7.05,12.6a.53.53,0,0,1-.46.46Z" fill="#231f20"></path><path d="M180.5,38.81h0a.49.49,0,0,1-.5-.49s0-.12,0-.23c.25-3.75-.71-6.85-2.76-9a.5.5,0,1,1,.72-.69c2.26,2.32,3.31,5.69,3,9.72v.17A.49.49,0,0,1,180.5,38.81Z" fill="#231f20"></path></svg>